# xmcd
#
# Track frame offsets: 
#        150
#        14659
#        24192
#        34817
#        45119
#        54777
#        66815
#        80303
#        95058
#        108411
#        121535
#
# Disc length: 1803 seconds
#
# Revision: 0
# Processed by: cddbd v1.5.2PL0 Copyright (c) Steve Scherf et al.
# Submitted via: ExactAudioCopy v1.0b1
#
DISCID=7707090b
DTITLE=Otis Redding - The Immortal Otis Redding
DYEAR=1968
DGENRE=R&B
TTITLE0=I've Got Dreams To Remember
TTITLE1=You Made A Man Out Of Me
TTITLE2=Nobody's Fault But Mine
TTITLE3=Hard To Handle
TTITLE4=Thousand Miles Away
TTITLE5=The Happy Song (Dum-Dum-De-De-De-Dum-Dum)
TTITLE6=Think About It
TTITLE7=A Waste Of Time
TTITLE8=Champagne And Wine
TTITLE9=A Fool for You
TTITLE10=Amen
EXTD=
EXTT0=
EXTT1=
EXTT2=
EXTT3=
EXTT4=
EXTT5=
EXTT6=
EXTT7=
EXTT8=
EXTT9=
EXTT10=
PLAYORDER=
